<svg width="350" height="290" viewBox="0 0 350 290" fill="none" xmlns="http://www.w3.org/2000/svg">
<path d="M0 3L178.736 3L221.478 3L264.219 3C264.219 3 282.761 8.7261 290.447 18.593C301.053 32.2109 299.189 64.2582 299.189 64.2582V224.643" stroke="#002CA5" stroke-width="5" stroke-dasharray="20 20"/>
<path d="M296.915 285.499C298.081 287.499 300.967 287.499 302.111 285.499L339.862 219.5C341.006 217.5 339.549 215 337.239 215H261.029C258.72 215 257.29 217.5 258.455 219.5L296.915 285.499Z" fill="#0644F0"/>
<path d="M297.787 272.854C298.958 274.822 301.805 274.822 302.955 272.854L330.616 225.511C331.785 223.511 330.33 220.987 328.008 220.987L272.177 220.987C269.856 220.987 268.427 223.511 269.617 225.511L297.787 272.854Z" fill="white"/>
</svg>
