<svg width="130" height="130" viewBox="0 0 130 130" fill="none" xmlns="http://www.w3.org/2000/svg">
<g clip-path="url(#clip0_164_1043)">
<ellipse cx="64.8264" cy="65" rx="64.8264" ry="65" fill="#9DBAFF"/>
<path d="M97.2411 53.6249V82.0726C97.2411 84.7099 95.9943 87.1913 93.881 88.761C78.2265 100.388 56.8311 100.388 41.1767 88.761C39.0632 87.1913 37.8167 84.7099 37.8167 82.0726V55.5206M75.6323 43.3332L104.222 52.0923C106.493 52.7884 108.046 54.8906 108.046 57.2723V85.8929M108.046 95.8233V102.916M70.1815 63.1213L104.281 51.1541C109.105 49.4614 109.105 42.6217 104.281 40.929L70.1815 28.9621C66.7155 27.7457 62.9399 27.7457 59.4738 28.9621L25.374 40.929C20.5506 42.6217 20.5506 49.4614 25.374 51.1541L59.4738 63.1213C62.9399 64.3373 66.7155 64.3373 70.1815 63.1213Z" stroke="black" stroke-width="3" stroke-linecap="round"/>
</g>
<defs>
<clipPath id="clip0_164_1043">
<rect width="129.653" height="130" fill="white"/>
</clipPath>
</defs>
</svg>
