<svg width="130" height="130" viewBox="0 0 130 130" fill="none" xmlns="http://www.w3.org/2000/svg">
<g clip-path="url(#clip0_164_1037)">
<ellipse cx="64.8264" cy="64" rx="64.8264" ry="65" fill="#9DBAFF"/>
<path d="M82.3824 109.716C86.219 104.368 85.4654 85.2212 79.5268 73.421C77.5242 69.4408 72.1068 71.3275 70.2339 75.371C64.7712 87.1663 50.8429 101.025 41.9028 106.42M27.012 81.2497C27.7825 97.4813 43.9426 113.75 64.8274 113.75C85.7123 113.75 102.643 97.4997 102.643 81.2497C102.643 66.4335 97.2395 66.3539 89.1362 54.1663C83.8923 46.2797 87.6976 31.5886 91.0356 22.2018C92.431 18.2798 89.369 13.9687 85.285 14.7247C60.8865 19.2417 49.1811 33.9074 49.9657 59.7396C50.0555 62.6955 45.7616 64.2213 44.1967 61.7156L39.7118 54.5326C37.5906 51.1357 32.6934 51.1874 31.1736 54.8944C28.1618 62.2399 26.5229 70.9445 27.012 81.2497Z" stroke="black" stroke-width="3" stroke-linecap="round"/>
</g>
<defs>
<clipPath id="clip0_164_1037">
<rect width="129.653" height="130" fill="white"/>
</clipPath>
</defs>
</svg>
