<svg width="130" height="130" viewBox="0 0 130 130" fill="none" xmlns="http://www.w3.org/2000/svg">
<g clip-path="url(#clip0_164_1048)">
<ellipse cx="64.8264" cy="65" rx="64.8264" ry="65" fill="#9DBAFF"/>
<path d="M32.9119 112.667V43.4417C32.9119 37.2722 32.9119 34.1875 34.1283 31.8394C35.1533 29.8608 36.7623 28.2475 38.7357 27.2197C41.0774 26 44.1539 26 50.3069 26H58.1198C60.8066 26 62.1502 26 63.4132 26.3093C64.4872 26.5723 65.5141 26.9989 66.459 27.5742C67.5702 28.2511 68.5199 29.2036 70.4199 31.1086L76.4368 37.1414C78.3368 39.0464 79.2865 39.9989 80.3977 40.6758C81.3426 41.2511 82.3695 41.6777 83.4435 41.9407C84.7065 42.25 86.05 42.25 88.7371 42.25H91.1475C97.3006 42.25 100.377 42.25 102.719 43.4697C104.692 44.4975 106.301 46.1108 107.326 48.0894C108.543 50.4375 108.543 53.5222 108.543 59.6917V73.5583C108.543 79.7279 108.543 82.8127 107.326 85.1603C106.301 87.139 104.692 88.7526 102.719 89.7802C100.377 91 97.3006 91 91.1475 91H88.7371C86.05 91 84.7065 91 83.4435 90.6907C82.3695 90.4275 81.3426 90.0012 80.3977 89.4259C79.2865 88.7488 78.3368 87.7966 76.4368 85.8915L70.4199 79.8585C68.5199 77.9534 67.5702 77.0012 66.459 76.3241C65.5141 75.7488 64.4872 75.3225 63.4132 75.0593C62.1502 74.75 60.8066 74.75 58.1198 74.75H54.5207" stroke="black" stroke-width="3" stroke-linecap="round"/>
</g>
<defs>
<clipPath id="clip0_164_1048">
<rect width="129.653" height="130" fill="white"/>
</clipPath>
</defs>
</svg>
