<svg width="244" height="75" viewBox="0 0 244 75" fill="none" xmlns="http://www.w3.org/2000/svg">
<g clip-path="url(#clip0_164_1229)">
<g filter="url(#filter0_d_164_1229)">
<path d="M164.789 12.856V68.9022H152.411V17.1155L155.697 17.3397L131.246 68.9022H117.874L93.4231 17.4891L96.6323 17.1902V68.9022H84.3304V12.856H104.273L127.349 62.7744H121.771L144.847 12.856H164.789ZM172.847 48.8501L175.806 49.408L178.802 48.8501V68.9022H172.847V48.8501ZM175.806 46.7926C174.737 46.7926 173.858 46.5252 173.168 45.9905C172.503 45.4325 172.169 44.7002 172.169 43.7935C172.169 42.8635 172.503 42.1312 173.168 41.5964C173.858 41.0385 174.737 40.7595 175.806 40.7595C176.9 40.7595 177.78 41.0385 178.445 41.5964C179.111 42.1312 179.444 42.8635 179.444 43.7935C179.444 44.7002 179.111 45.4325 178.445 45.9905C177.78 46.5252 176.9 46.7926 175.806 46.7926ZM205.508 62.6599C205.508 64.0782 205.08 65.2988 204.225 66.3215C203.393 67.3443 202.145 68.1235 200.481 68.658C198.816 69.1697 196.784 69.4253 194.383 69.4253C191.911 69.4253 189.759 69.1348 187.929 68.5534C186.099 67.9491 184.673 67.1002 183.65 66.0077C182.628 64.9152 182.081 63.6478 182.01 62.2065H188.072C188.214 62.8576 188.571 63.4271 189.141 63.9153C189.712 64.3801 190.449 64.7408 191.352 64.9964C192.279 65.2519 193.349 65.38 194.561 65.38C196.249 65.38 197.521 65.1941 198.377 64.822C199.256 64.4498 199.696 63.8919 199.696 63.1481C199.696 62.6135 199.387 62.2065 198.769 61.9275C198.175 61.6485 197.069 61.4393 195.453 61.2998L191.673 61.0208C189.415 60.835 187.62 60.4628 186.289 59.9049C184.958 59.3469 184.007 58.6494 183.436 57.8125C182.89 56.9521 182.616 56.0105 182.616 54.9878C182.616 53.5694 183.068 52.3837 183.971 51.4307C184.874 50.4776 186.134 49.7568 187.751 49.2685C189.391 48.7803 191.281 48.5362 193.42 48.5362C195.607 48.5362 197.557 48.8268 199.268 49.408C200.98 49.9894 202.346 50.7915 203.369 51.8143C204.415 52.8371 205.009 54.0228 205.152 55.3714H199.09C198.995 54.8831 198.722 54.4298 198.27 54.0113C197.842 53.5694 197.212 53.2092 196.38 52.9302C195.548 52.6512 194.466 52.5118 193.135 52.5118C191.637 52.5118 190.485 52.6861 189.676 53.0349C188.868 53.3602 188.464 53.8604 188.464 54.5344C188.464 54.9992 188.714 55.3828 189.213 55.6852C189.712 55.9642 190.639 56.162 191.994 56.2781L196.915 56.6617C199.102 56.8475 200.825 57.2082 202.085 57.7427C203.345 58.2544 204.225 58.9284 204.724 59.7654C205.247 60.6023 205.508 61.5673 205.508 62.6599ZM208.923 48.8501L211.882 49.408L214.878 48.8501V68.9022H208.923V48.8501ZM211.882 46.7926C210.813 46.7926 209.933 46.5252 209.244 45.9905C208.578 45.4325 208.245 44.7002 208.245 43.7935C208.245 42.8635 208.578 42.1312 209.244 41.5964C209.933 41.0385 210.813 40.7595 211.882 40.7595C212.975 40.7595 213.855 41.0385 214.521 41.5964C215.186 42.1312 215.519 42.8635 215.519 43.7935C215.519 44.7002 215.186 45.4325 214.521 45.9905C213.855 46.5252 212.975 46.7926 211.882 46.7926ZM241.584 62.6599C241.584 64.0782 241.156 65.2988 240.3 66.3215C239.468 67.3443 238.22 68.1235 236.556 68.658C234.892 69.1697 232.86 69.4253 230.458 69.4253C227.986 69.4253 225.835 69.1348 224.004 68.5534C222.174 67.9491 220.748 67.1002 219.725 66.0077C218.704 64.9152 218.157 63.6478 218.085 62.2065H224.147C224.29 62.8576 224.646 63.4271 225.217 63.9153C225.787 64.3801 226.524 64.7408 227.428 64.9964C228.355 65.2519 229.424 65.38 230.637 65.38C232.325 65.38 233.596 65.1941 234.452 64.822C235.332 64.4498 235.771 63.8919 235.771 63.1481C235.771 62.6135 235.463 62.2065 234.844 61.9275C234.25 61.6485 233.145 61.4393 231.528 61.2998L227.748 61.0208C225.49 60.835 223.696 60.4628 222.364 59.9049C221.033 59.3469 220.082 58.6494 219.512 57.8125C218.965 56.9521 218.691 56.0105 218.691 54.9878C218.691 53.5694 219.143 52.3837 220.046 51.4307C220.95 50.4776 222.21 49.7568 223.826 49.2685C225.466 48.7803 227.356 48.5362 229.496 48.5362C231.683 48.5362 233.632 48.8268 235.344 49.408C237.055 49.9894 238.422 50.7915 239.444 51.8143C240.49 52.8371 241.084 54.0228 241.227 55.3714H235.165C235.07 54.8831 234.797 54.4298 234.345 54.0113C233.917 53.5694 233.288 53.2092 232.455 52.9302C231.623 52.6512 230.542 52.5118 229.21 52.5118C227.713 52.5118 226.56 52.6861 225.752 53.0349C224.944 53.3602 224.539 53.8604 224.539 54.5344C224.539 54.9992 224.789 55.3828 225.288 55.6852C225.787 55.9642 226.714 56.162 228.069 56.2781L232.99 56.6617C235.177 56.8475 236.901 57.2082 238.16 57.7427C239.421 58.2544 240.3 58.9284 240.799 59.7654C241.322 60.6023 241.584 61.5673 241.584 62.6599Z" fill="#E2E2E2"/>
<path d="M181.874 34.4773C179.816 34.4773 177.972 34.1087 176.342 33.3713C174.733 32.6141 173.459 31.5579 172.522 30.2029C171.605 28.8478 171.146 27.2735 171.146 25.48C171.146 23.7065 171.585 22.1521 172.461 20.817C173.357 19.4819 174.58 18.4456 176.128 17.7083C177.677 16.9511 179.439 16.5724 181.416 16.5724C183.433 16.5724 185.165 17.0108 186.612 17.8877C188.058 18.7445 189.169 19.9601 189.943 21.5344C190.738 23.1087 191.135 24.9619 191.135 27.0942H175.242V23.7762H188.384L186.398 24.9719C186.316 23.9755 186.062 23.1286 185.634 22.4311C185.226 21.7337 184.666 21.1956 183.953 20.817C183.24 20.4384 182.404 20.2491 181.446 20.2491C180.407 20.2491 179.501 20.4583 178.726 20.8768C177.972 21.2753 177.381 21.8433 176.954 22.5806C176.546 23.298 176.342 24.1449 176.342 25.1213C176.342 26.2971 176.607 27.3034 177.137 28.1404C177.667 28.9773 178.441 29.615 179.46 30.0534C180.479 30.4918 181.711 30.711 183.158 30.711C184.462 30.711 185.776 30.5317 187.101 30.173C188.425 29.7944 189.617 29.2663 190.677 28.5887V31.9366C189.536 32.7337 188.201 33.3614 186.673 33.8197C185.165 34.2581 183.566 34.4773 181.874 34.4773ZM203.932 34.4773C201.874 34.4773 200.03 34.1087 198.4 33.3713C196.79 32.6141 195.516 31.5579 194.579 30.2029C193.662 28.8478 193.204 27.2735 193.204 25.48C193.204 23.7065 193.642 22.1521 194.518 20.817C195.415 19.4819 196.637 18.4456 198.186 17.7083C199.734 16.9511 201.497 16.5724 203.473 16.5724C205.49 16.5724 207.222 17.0108 208.669 17.8877C210.116 18.7445 211.226 19.9601 212 21.5344C212.795 23.1087 213.192 24.9619 213.192 27.0942H197.299V23.7762H210.442L208.455 24.9719C208.374 23.9755 208.119 23.1286 207.691 22.4311C207.283 21.7337 206.723 21.1956 206.01 20.817C205.297 20.4384 204.461 20.2491 203.504 20.2491C202.465 20.2491 201.558 20.4583 200.784 20.8768C200.03 21.2753 199.439 21.8433 199.011 22.5806C198.603 23.298 198.4 24.1449 198.4 25.1213C198.4 26.2971 198.664 27.3034 199.194 28.1404C199.724 28.9773 200.498 29.615 201.517 30.0534C202.536 30.4918 203.769 30.711 205.215 30.711C206.519 30.711 207.834 30.5317 209.158 30.173C210.482 29.7944 211.674 29.2663 212.734 28.5887V31.9366C211.593 32.7337 210.258 33.3614 208.73 33.8197C207.222 34.2581 205.623 34.4773 203.932 34.4773ZM214.047 20.7871V18.5752L217.684 17.4094L219.854 12.5371H222.788V17.0208H230.49V20.7871H222.788V26.9746C222.788 28.2898 223.063 29.2165 223.613 29.7545C224.184 30.2726 225.162 30.5317 226.547 30.5317C227.423 30.5317 228.198 30.452 228.87 30.2925C229.542 30.1331 230.184 29.904 230.796 29.605V33.4909C230.205 33.73 229.42 33.9492 228.442 34.1485C227.464 34.3677 226.456 34.4773 225.416 34.4773C223.603 34.4773 222.126 34.1983 220.985 33.6404C219.864 33.0625 219.029 32.2654 218.478 31.2491C217.949 30.2328 217.684 29.0471 217.684 27.692V20.7871H214.047Z" fill="#084CF0"/>
<path d="M55.8267 53.1569C53.5412 51.7036 48.9273 50.9783 48.9273 50.9783L71.4211 42.0779C71.4211 42.0779 67.59 46.0219 66.6454 49.0536C65.7311 51.9888 65.9119 56.7098 65.9119 56.7098L66.8711 64.8301C66.8711 64.8301 64.0603 60.5937 61.6499 58.3263C59.4766 56.2816 58.3548 54.7646 55.8267 53.1569Z" fill="#094EF1" stroke="#0541F0"/>
<path d="M63.8457 16.874H30.7969C22.7721 16.874 16.2667 24.6413 16.2667 34.2227C16.2667 43.8041 22.7721 51.5714 30.7969 51.5714H63.8457C71.8704 51.5714 78.3758 43.8041 78.3758 34.2227C78.3758 24.6413 71.8704 16.874 63.8457 16.874Z" fill="#084CF0"/>
</g>
</g>
<defs>
<filter id="filter0_d_164_1229" x="12.2667" y="12.5371" width="233.317" height="64.8882" filterUnits="userSpaceOnUse" color-interpolation-filters="sRGB">
<feFlood flood-opacity="0" result="BackgroundImageFix"/>
<feColorMatrix in="SourceAlpha" type="matrix" values="0 0 0 0 0 0 0 0 0 0 0 0 0 0 0 0 0 0 127 0" result="hardAlpha"/>
<feOffset dy="4"/>
<feGaussianBlur stdDeviation="2"/>
<feComposite in2="hardAlpha" operator="out"/>
<feColorMatrix type="matrix" values="0 0 0 0 0 0 0 0 0 0 0 0 0 0 0 0 0 0 0.25 0"/>
<feBlend mode="normal" in2="BackgroundImageFix" result="effect1_dropShadow_164_1229"/>
<feBlend mode="normal" in="SourceGraphic" in2="effect1_dropShadow_164_1229" result="shape"/>
</filter>
<clipPath id="clip0_164_1229">
<rect width="244" height="73.7319" fill="white" transform="translate(0 0.971191)"/>
</clipPath>
</defs>
</svg>
