<svg width="450" height="700" viewBox="0 0 450 700" fill="none" xmlns="http://www.w3.org/2000/svg">
<path d="M40.257 627.979C39.0477 619.348 30.8684 604.137 30.8684 604.137L102.094 644.922C102.094 644.922 83.2482 643.57 73.6105 647.169C64.2799 650.654 52.7879 660.423 52.7879 660.423L34.4014 678.862C34.4014 678.862 39.0756 663.415 39.6486 652.863C40.166 643.348 41.5942 637.527 40.257 627.979Z" fill="#094EF1" stroke="#0541F0"/>
<path d="M28.4543 541.045C28.4543 513.431 50.8401 491.045 78.4543 491.045H312.973C318.78 491.045 324.301 493.569 328.1 497.962L384.066 562.672C410.825 596.797 386.513 646.756 343.148 646.756H78.4543C50.8401 646.756 28.4543 624.37 28.4543 596.756V541.045Z" fill="#084CF0"/>
<path d="M337.711 492.254C331.911 485.935 316.755 478.33 316.755 478.33L404.415 478.329C404.415 478.329 386.449 485.07 379.358 492.326C372.494 499.351 377.133 509.143 377.133 509.143L392.229 545.351C392.229 545.351 361.71 517.719 355.075 510.096C349.269 503.426 344.127 499.243 337.711 492.254Z" fill="#FC7F00"/>
<path d="M157.037 336.437H430C441.046 336.437 450 345.391 450 356.437V459.997C450 471.042 441.046 479.997 430 479.997H157.037V336.437Z" fill="#FC7F00"/>
<path d="M141.794 345.05C153.512 335.604 158.2 336.437 158.2 336.437L157.028 479.997L85.5539 479.519C85.5539 479.519 53.9143 479.519 40.4377 476.169C25.2447 472.393 13.5046 465.163 7.62585 456.549C-1.39804 443.328 -1.66487 427.187 2.93819 412.524C6.59819 400.865 18.5657 391.946 24.032 388.598C31.0633 384.291 42.0487 380.783 55.0858 379.506C69.7342 378.07 83.2106 380.463 91.4131 379.506C100.742 378.417 107.233 376.325 113.679 371.37C118.036 368.021 133.708 351.567 141.794 345.05Z" fill="#FC7F00"/>
<path d="M249.655 435.718L248.296 434.25V434.25L249.655 435.718ZM54.891 444.794C54.0806 445.545 54.032 446.81 54.7826 447.62L67.0132 460.827C67.7638 461.637 69.0292 461.686 69.8396 460.935C70.65 460.185 70.6985 458.919 69.948 458.109L59.0763 446.37L70.8154 435.498C71.6258 434.748 71.6743 433.482 70.9238 432.672C70.1732 431.861 68.9078 431.813 68.0974 432.563L54.891 444.794ZM393.75 378.309C394.855 378.309 395.75 377.414 395.75 376.309C395.75 375.205 394.855 374.309 393.75 374.309V378.309ZM288.555 380.139L288.899 382.109L288.555 380.139ZM248.296 434.25C247.398 435.082 245.89 435.956 243.686 436.815C241.509 437.664 238.782 438.45 235.56 439.171C229.115 440.612 220.854 441.756 211.388 442.651C192.467 444.44 168.938 445.218 145.946 445.458C122.963 445.697 100.557 445.399 83.8929 445.04C75.562 444.861 68.6684 444.666 63.8584 444.517C61.4534 444.442 59.5694 444.379 58.2872 444.334C57.6461 444.311 57.1554 444.294 56.8253 444.281C56.6602 444.275 56.5352 444.271 56.4517 444.268C56.41 444.266 56.3785 444.265 56.3576 444.264C56.3472 444.264 56.3394 444.263 56.3342 444.263C56.3316 444.263 56.3297 444.263 56.3284 444.263C56.3272 444.263 56.3266 444.263 56.2499 446.261C56.1733 448.26 56.174 448.26 56.1755 448.26C56.1768 448.26 56.1789 448.26 56.1817 448.26C56.1871 448.26 56.1952 448.261 56.2059 448.261C56.2274 448.262 56.2593 448.263 56.3016 448.265C56.3863 448.268 56.5123 448.273 56.6785 448.279C57.0109 448.291 57.5039 448.309 58.1475 448.331C59.4345 448.376 61.3237 448.44 63.7341 448.515C68.555 448.665 75.4614 448.859 83.8068 449.039C100.496 449.398 122.948 449.698 145.988 449.458C169.018 449.217 192.677 448.438 211.765 446.633C221.304 445.731 229.754 444.568 236.433 443.075C239.772 442.328 242.71 441.489 245.14 440.542C247.543 439.605 249.583 438.51 251.014 437.185L248.296 434.25ZM393.75 376.309C393.75 374.309 393.75 374.309 393.749 374.309C393.748 374.309 393.747 374.309 393.746 374.309C393.743 374.309 393.74 374.309 393.734 374.309C393.724 374.309 393.709 374.309 393.689 374.309C393.648 374.309 393.588 374.309 393.509 374.309C393.35 374.309 393.115 374.31 392.806 374.31C392.19 374.311 391.284 374.313 390.122 374.317C387.8 374.324 384.459 374.339 380.381 374.369C372.225 374.429 361.121 374.549 349.33 374.788C325.835 375.266 299.355 376.221 288.211 378.169L288.899 382.109C299.671 380.227 325.789 379.268 349.412 378.788C361.18 378.548 372.266 378.429 380.41 378.369C384.482 378.339 387.818 378.324 390.135 378.317C391.294 378.313 392.198 378.311 392.812 378.31C393.12 378.31 393.354 378.309 393.512 378.309C393.591 378.309 393.65 378.309 393.69 378.309C393.71 378.309 393.725 378.309 393.735 378.309C393.74 378.309 393.744 378.309 393.746 378.309C393.748 378.309 393.749 378.309 393.749 378.309C393.75 378.309 393.75 378.309 393.75 376.309ZM288.211 378.169C280.151 379.578 274.63 382.845 270.673 387.333C266.766 391.764 264.506 397.249 262.7 402.854C260.84 408.624 259.53 414.228 257.414 419.8C255.347 425.244 252.642 430.226 248.296 434.25L251.014 437.185C255.982 432.585 258.967 426.977 261.154 421.22C263.292 415.59 264.799 409.381 266.507 404.081C268.268 398.617 270.325 393.776 273.673 389.979C276.971 386.239 281.643 383.377 288.899 382.109L288.211 378.169Z" fill="#FFD7AD"/>
<path d="M85.9035 325.761C79.3694 319.2 69.5909 315.573 69.5909 315.573L165.214 315.586C165.214 315.586 142.31 326.7 134.3 334.232C126.545 341.525 120.321 355.476 106.154 362.865C100.489 365.82 90.7419 368.672 90.7419 368.672L93.1261 347.234C93.1261 347.234 93.1309 333.018 85.9035 325.761Z" fill="#084CF0"/>
<path d="M0 238.499C0 195.063 35.2119 159.851 78.648 159.851H312.383C318.398 159.851 324.093 162.557 327.891 167.22L423.424 284.516C434.066 297.583 424.768 317.147 407.917 317.147H78.648C35.2119 317.147 0 281.935 0 238.499Z" fill="#084CF0"/>
<path d="M54.8293 219.485C52.7402 212.695 57.8177 205.82 64.9221 205.82C72.0266 205.82 77.1041 212.695 75.015 219.485L64.9221 252.291L54.8293 219.485Z" fill="#96ADE5"/>
<ellipse cx="64.9219" cy="262.913" rx="7.14844" ry="6.63868" fill="#96ADE5"/>
<path d="M330.346 155.375C324.559 149.906 308.25 142.146 308.25 142.146L398.247 142.138C398.247 142.138 382.975 149.089 375.869 155.366C368.989 161.444 369.495 169.847 369.495 169.847L374.656 208.911L345.207 171.526C339.445 164.272 336.746 161.426 330.346 155.375Z" fill="#FC7F00" stroke="#FC7F00"/>
<path d="M-0.00012207 71.2347C-0.00012207 31.8929 31.8927 0 71.2346 0H430C441.046 0 450 8.9543 450 20V122.469C450 133.515 441.046 142.469 430 142.469H71.2346C31.8928 142.469 -0.00012207 110.577 -0.00012207 71.2347Z" fill="#FC7F00"/>
<ellipse cx="168.75" cy="71.2343" rx="16.875" ry="14.2469" fill="#FFD7AD"/>
<ellipse cx="225" cy="71.2343" rx="16.875" ry="14.2469" fill="#FFD7AD"/>
<ellipse cx="281.25" cy="71.2343" rx="16.875" ry="14.2469" fill="#FFD7AD"/>
</svg>
