<svg width="1669" height="314" viewBox="0 0 1669 314" fill="none" xmlns="http://www.w3.org/2000/svg">
<path fill-rule="evenodd" clip-rule="evenodd" d="M0 139.622C0.654822 139.689 1.32437 139.763 2.00896 139.843C2.88564 140.104 3.73226 140.353 4.55001 140.594C19.6679 145.042 24.9164 146.587 27.7806 167.18L27.8324 167.553C27.8818 167.907 27.9308 168.26 27.9792 168.609C28.0285 168.139 28.0814 167.662 28.1379 167.177C34.8058 143.559 46.4985 143.087 52.9378 142.827C54.5122 142.764 55.7725 142.713 56.5686 142.339L56.9599 142.286L56.9656 142.285C57.3126 142.237 57.6571 142.19 57.9992 142.143C57.7447 142.119 57.4881 142.094 57.2293 142.068C55.2951 141.527 53.5105 141.065 51.8612 140.639L51.8603 140.639L51.8599 140.639C38.8652 137.279 34.263 136.089 30.9626 115.16L30.904 114.789L30.904 114.789L30.904 114.789C30.5162 112.331 30.1486 110.001 29.8698 107.812C29.8124 109.63 29.6952 111.589 29.5147 113.699C26.1407 136.952 12.8676 138.064 5.73439 138.662C4.00491 138.807 2.63636 138.922 1.85735 139.314C1.7272 139.336 1.59739 139.357 1.46792 139.379C0.973647 139.461 0.484309 139.542 0 139.622Z" fill="#084CF0"/>
<path fill-rule="evenodd" clip-rule="evenodd" d="M1632 20.6698C1632.41 20.7118 1632.83 20.7577 1633.25 20.8076C1633.8 20.9704 1634.33 21.1257 1634.84 21.2758C1644.26 24.0499 1647.54 25.013 1649.32 37.8551L1649.36 38.0876L1649.45 38.7471C1649.48 38.4541 1649.51 38.1562 1649.55 37.8533C1653.7 23.1252 1661 22.8308 1665.01 22.6687C1665.99 22.629 1666.78 22.5973 1667.28 22.3644L1667.52 22.3309L1668.17 22.2419C1668.01 22.2268 1667.85 22.2112 1667.69 22.1951C1666.48 21.8575 1665.37 21.5698 1664.34 21.3038L1664.34 21.3038L1664.34 21.3037C1656.24 19.2085 1653.37 18.4665 1651.31 5.4155L1651.27 5.1836L1651.27 5.18356C1651.03 3.65072 1650.8 2.19756 1650.63 0.833008C1650.59 1.96642 1650.52 3.18792 1650.41 4.50399C1648.3 19.0048 1640.02 19.6984 1635.58 20.0711C1634.5 20.1615 1633.64 20.233 1633.16 20.4779C1633.08 20.4914 1633 20.5048 1632.92 20.5182C1632.61 20.5693 1632.3 20.6199 1632 20.6698Z" fill="#33DFFE"/>
<path fill-rule="evenodd" clip-rule="evenodd" d="M190.666 280.851C191.406 280.927 192.162 281.01 192.935 281.1C193.924 281.395 194.88 281.676 195.802 281.948L195.803 281.948C212.867 286.969 218.791 288.712 222.024 311.957L222.083 312.378C222.138 312.777 222.194 313.174 222.248 313.567C222.304 313.038 222.363 312.5 222.427 311.953C229.953 285.295 243.151 284.762 250.419 284.469C252.197 284.397 253.619 284.34 254.518 283.918L254.959 283.858L254.979 283.855C255.366 283.802 255.751 283.749 256.133 283.697C255.846 283.669 255.556 283.641 255.264 283.612C253.08 283.001 251.065 282.48 249.203 281.998C234.536 278.206 229.341 276.863 225.616 253.24L225.549 252.821C225.112 250.046 224.697 247.416 224.382 244.946C224.317 246.997 224.185 249.208 223.981 251.591C220.173 277.837 205.191 279.093 197.14 279.767C195.187 279.931 193.643 280.06 192.763 280.504C192.616 280.528 192.47 280.552 192.324 280.577C191.766 280.669 191.213 280.761 190.666 280.851Z" fill="#FC7F00"/>
<path fill-rule="evenodd" clip-rule="evenodd" d="M1366.67 246.555C1367.25 246.614 1367.84 246.68 1368.45 246.751C1369.22 246.982 1369.97 247.202 1370.7 247.416L1370.7 247.416C1384.09 251.356 1388.74 252.724 1391.27 270.966L1391.32 271.297L1391.32 271.298C1391.36 271.612 1391.41 271.923 1391.45 272.231C1391.49 271.816 1391.54 271.393 1391.59 270.964C1397.5 250.043 1407.86 249.625 1413.56 249.394C1414.95 249.338 1416.07 249.293 1416.78 248.962L1417.12 248.914L1418.04 248.788C1417.82 248.767 1417.59 248.744 1417.36 248.722C1415.65 248.242 1414.07 247.833 1412.61 247.455C1401.09 244.479 1397.02 243.425 1394.09 224.886L1394.04 224.557L1394.04 224.557L1394.04 224.557C1393.7 222.38 1393.37 220.316 1393.13 218.378C1393.08 219.988 1392.97 221.723 1392.81 223.591C1389.82 244.19 1378.07 245.175 1371.75 245.704C1370.21 245.833 1369 245.934 1368.31 246.282C1368.2 246.301 1368.08 246.32 1367.97 246.339C1367.53 246.412 1367.1 246.484 1366.67 246.555Z" fill="#FFB232"/>
</svg>
